<svg width="16" height="16" viewBox="0 0 16 16" fill="none" xmlns="http://www.w3.org/2000/svg">
<g id="&#230;&#155;&#191;&#230;&#141;&#162;">
<g id="Outlined">
<path fill-rule="evenodd" clip-rule="evenodd" d="M8.00014 1.33333C5.75337 1.33333 3.932 3.1547 3.932 5.40147C3.932 7.64824 5.75337 9.46961 8.00014 9.46961C10.2469 9.46961 12.0683 7.64824 12.0683 5.40147C12.0683 3.1547 10.2469 1.33333 8.00014 1.33333ZM4.932 5.40147C4.932 3.70698 6.30565 2.33333 8.00014 2.33333C9.69463 2.33333 11.0683 3.70698 11.0683 5.40147C11.0683 7.09596 9.69463 8.46961 8.00014 8.46961C6.30565 8.46961 4.932 7.09596 4.932 5.40147Z" fill="#5E6065"/>
<path d="M2.18853 14.5888C3.86884 13.523 5.86147 12.9058 7.99978 12.9058C10.1381 12.9058 12.1307 13.523 13.811 14.5888C14.0442 14.7367 14.3532 14.6675 14.5011 14.4344C14.649 14.2012 14.5798 13.8922 14.3466 13.7443C12.5109 12.58 10.3333 11.9058 7.99978 11.9058C5.66625 11.9058 3.48866 12.58 1.65291 13.7443C1.41972 13.8922 1.35058 14.2012 1.49849 14.4344C1.64639 14.6675 1.95533 14.7367 2.18853 14.5888Z" fill="#5E6065"/>
</g>
</g>
</svg>
