<svg width="16" height="16" viewBox="0 0 16 16" fill="none" xmlns="http://www.w3.org/2000/svg">
<g id="line/&#229;&#136;&#134;&#228;&#186;&#171;06">
<g id="Outlined">
<path d="M1.33466 8C1.33466 4.32059 4.32059 1.33466 8 1.33466C8.27614 1.33466 8.5 1.55851 8.5 1.83466C8.5 2.1108 8.27614 2.33466 8 2.33466C4.87287 2.33466 2.33466 4.87287 2.33466 8C2.33466 11.1271 4.87287 13.6653 8 13.6653C11.1271 13.6653 13.6653 11.1271 13.6653 8C13.6653 7.72386 13.8892 7.5 14.1653 7.5C14.4415 7.5 14.6653 7.72386 14.6653 8C14.6653 11.6794 11.6794 14.6653 8 14.6653C4.32059 14.6653 1.33466 11.6794 1.33466 8Z" fill="white"/>
<path d="M13.6653 3.04173V4.81252C13.6653 5.08866 13.8892 5.31252 14.1653 5.31252C14.4415 5.31252 14.6653 5.08866 14.6653 4.81252V1.83466C14.6653 1.55851 14.4415 1.33466 14.1653 1.33466H11.1875C10.9113 1.33466 10.6875 1.55851 10.6875 1.83466C10.6875 2.1108 10.9113 2.33466 11.1875 2.33466H12.9582L8.26298 7.02985C8.06772 7.22511 8.06772 7.54169 8.26298 7.73695C8.45824 7.93222 8.77482 7.93222 8.97009 7.73695L13.6653 3.04173Z" fill="white"/>
</g>
</g>
</svg>
