<svg t="1728747277352" class="icon" viewBox="0 0 1024 1024" version="1.1" xmlns="http://www.w3.org/2000/svg" p-id="10396" width="200" height="200"><path d="M122.88 204.8h819.2v573.44H122.88z" fill="#DE2910" p-id="10397"></path><path d="M257.14688 268.4928l18.06336 54.72256h58.49088l-47.26784 33.91488 18.0224 54.80448-47.3088-33.792-47.26784 33.792 17.98144-54.80448-47.3088-33.792h58.5728l18.0224-54.84544z m152.3712-28.59008l-1.18784 18.92352 17.89952 7.04512-18.71872 4.75136-1.2288 18.88256-10.15808-16.05632-18.6368 4.75136 12.288-14.5408-10.15808-16.05632 17.77664 6.92224 12.16512-14.62272z m65.536 61.31712l-8.68352 16.87552 13.63968 13.43488-19.00544-2.99008-8.8064 16.9984-2.99008-18.8416-19.00544-2.90816 17.24416-8.6016-3.03104-18.71872 13.5168 13.312 17.16224-8.6016zM455.4752 378.0608l5.85728 18.06336h19.2512l-15.5648 11.14112 5.85728 18.0224-15.5648-11.264-15.48288 11.18208 5.89824-17.94048-15.5648-11.14112h19.2512l6.06208-18.06336z m-45.99808 57.91744l-1.26976 18.88256 17.89952 7.04512-18.55488 4.75136-1.31072 19.00544-10.28096-16.05632-18.6368 4.62848 12.24704-14.49984-10.24-16.09728 18.0224 7.04512 12.12416-14.7456z" fill="#FFDE00" p-id="10398"></path></svg>