<svg width="16" height="16" viewBox="0 0 16 16" fill="none" xmlns="http://www.w3.org/2000/svg">
<g id="&#230;&#155;&#191;&#230;&#141;&#162;">
<g id="Outlined">
<path fill-rule="evenodd" clip-rule="evenodd" d="M13.4722 2.678C13.6675 2.87322 13.6675 3.1898 13.4723 3.3851L11.4621 5.39603C11.4466 5.41388 11.43 5.43045 11.4125 5.44568L5.45136 11.409C5.43266 11.4313 5.41224 11.4517 5.39039 11.47L3.53923 13.3219C3.34401 13.5172 3.02743 13.5172 2.83213 13.322C2.63683 13.1268 2.63677 12.8102 2.83199 12.6149L4.24845 11.1979C2.91929 10.3777 1.86817 9.24456 1.38553 8.25672C1.31786 8.11822 1.31786 7.95624 1.38553 7.81774C1.82609 6.91603 2.7351 5.90254 3.88151 5.11549C5.03232 4.32543 6.47369 3.72825 8.00001 3.72825C9.06104 3.72825 10.0804 4.01705 10.9874 4.45646L12.7651 2.67813C12.9603 2.48283 13.2769 2.48277 13.4722 2.678ZM8.00001 4.72825C8.76534 4.72825 9.523 4.90998 10.2326 5.21149L8.95829 6.48631C8.11707 5.76768 6.85096 5.8062 6.05528 6.60188C5.25941 7.39774 5.22107 8.66427 5.94024 9.5055L4.97753 10.4686C3.79518 9.78808 2.8647 8.8351 2.40156 8.03725C2.7902 7.36782 3.51182 6.58228 4.4475 5.93991C5.48323 5.22884 6.73033 4.72825 8.00001 4.72825ZM6.65139 8.79408L8.24714 7.19773C7.80048 6.86709 7.1672 6.90418 6.76239 7.30898C6.35748 7.71389 6.32048 8.3474 6.65139 8.79408Z" fill="#5E6065"/>
<path d="M11.8833 5.54306C12.0537 5.3258 12.368 5.28785 12.5853 5.4583C13.5062 6.18084 14.234 7.03901 14.6145 7.81774C14.6822 7.95624 14.6822 8.11822 14.6145 8.25672C14.1739 9.15844 13.2649 10.1719 12.1185 10.959C10.9677 11.749 9.52633 12.3462 8.00001 12.3462C7.43278 12.3462 6.87764 12.2636 6.34604 12.12C6.07945 12.048 5.9217 11.7735 5.9937 11.507C6.0657 11.2404 6.34018 11.0826 6.60677 11.1546C7.06268 11.2777 7.52999 11.3462 8.00001 11.3462C9.26968 11.3462 10.5168 10.8456 11.5525 10.1346C12.4882 9.49219 13.2098 8.70665 13.5984 8.03723C13.2708 7.47296 12.705 6.82326 11.968 6.24507C11.7508 6.07462 11.7128 5.76032 11.8833 5.54306Z" fill="#5E6065"/>
</g>
</g>
</svg>
