<svg t="1728746447473" class="icon" viewBox="0 0 1024 1024" version="1.1" xmlns="http://www.w3.org/2000/svg" p-id="9292" width="200" height="200"><path d="M32 181.76h960v660H32z" fill="#FFFFFF" p-id="9293"></path><path d="M32 181.76h960v43.68H32v-43.68z m0 88.32h960v43.68H32v-43.68z m0 87.84h960V401.6H32v-43.68z m0 87.84h960v43.68H32v-43.68z m0 88.32h960v43.68H32v-43.68z m0 87.84h960v43.68H32v-43.68z m0 88.32h960v43.68H32v-43.68z m0 87.84h960v43.68H32v-43.68z m0 0" fill="#D02F44" p-id="9294"></path><path d="M32 181.76h420v307.68H32z" fill="#46467F" p-id="9295"></path><path d="M92.48 243.68l-14.88 11.52 5.28-18.72-14.88-12h18.72l6.24-18.72 6.24 18.72h18.72l-14.88 12 5.28 18.72-15.84-11.52z m98.4 0L176 255.2l5.28-18.72-14.88-12h18.72l6.24-18.72 6.24 18.72h18.72l-14.88 12 5.28 18.72-15.84-11.52z m98.88 0l-14.88 11.52 5.28-18.72-14.88-12h18.72l6.24-18.72 6.24 18.72H315.2l-14.88 12 5.28 18.72-15.84-11.52z m98.4 1.92l-14.88 11.52 5.28-19.2-14.88-12 18.72-0.48 6.24-19.2 6.24 19.2 18.72 0.48-14.88 12 5.28 19.2-15.84-11.52zM130.88 295.52l-14.88 11.52 5.28-18.72-14.88-12h18.72l6.24-18.72 5.76 18.72h18.72l-14.88 12 5.28 18.72-15.36-11.52z m110.88 0l-14.88 11.52 5.28-18.72-14.88-12h18.72l6.24-18.72 6.24 18.72H267.2l-14.88 12 5.28 18.72-15.84-11.52z m110.4 0l-14.88 11.52 5.28-18.72-14.88-12h18.72l6.24-18.72 6.24 18.72H377.6l-14.88 12 5.28 18.72-15.84-11.52zM92.48 347.36l-14.88 11.52 5.28-18.72-14.88-12h18.72l6.24-18.72 6.24 18.72h18.72l-14.88 12 5.28 18.72-15.84-11.52z m98.4 0L176 358.4l5.28-18.72-14.88-12h18.72l6.24-18.72 6.24 18.72h18.72l-14.88 12 5.28 18.72-15.84-11.04z m98.88 0l-14.88 11.52 5.28-18.72-14.88-12h18.72l6.24-18.72 6.24 18.72H315.2l-14.88 12 5.28 18.72-15.84-11.52z m98.4 1.44l-14.88 11.52 5.28-19.2-14.88-12 18.72-0.48 6.24-19.2 6.24 19.2 18.72 0.48-14.88 12 5.28 19.2-15.84-11.52zM92.48 450.56l-14.88 11.52 5.28-18.72-14.88-12h18.72l6.24-18.72 6.24 18.72h18.72l-14.88 12 5.28 18.72-15.84-11.52z m98.4 0L176 462.08l5.28-18.72-14.88-12h18.72l6.24-18.72 6.24 18.72h18.72l-14.88 12 5.28 18.72-15.84-11.52z m98.88 0l-14.88 11.52 5.28-18.72-14.88-12h18.72l6.24-18.72 6.24 18.72H315.2l-14.88 12 5.28 18.72-15.84-11.52z m98.4 1.92L373.28 464l5.28-19.2-14.88-12 18.72-0.48 6.24-19.2 6.24 19.2 18.72 0.48-15.36 12 5.28 19.2-15.36-11.52zM130.88 399.2l-14.88 11.52 5.28-18.72-14.88-12h18.72l6.24-18.72 5.76 18.72h18.72L140.48 392l5.28 18.72-14.88-11.52z m110.88 0l-14.88 11.52 5.28-18.72-14.88-12h18.72l6.24-18.72 6.24 18.72H267.2L251.84 392l5.28 18.72-15.36-11.52z m110.4 0l-14.88 11.52 5.28-18.72-14.88-12h18.72l6.24-18.72 6.24 18.72H377.6L362.24 392l5.28 18.72-15.36-11.52z m0 0" fill="#FFFFFF" p-id="9296"></path></svg>