<svg width="16" height="16" viewBox="0 0 16 16" fill="none" xmlns="http://www.w3.org/2000/svg">
<g id="&#230;&#155;&#191;&#230;&#141;&#162;">
<g id="Outlined">
<path fill-rule="evenodd" clip-rule="evenodd" d="M8.00012 5.85932C6.81788 5.85932 5.85948 6.81771 5.85948 7.99996C5.85948 9.1822 6.81788 10.1406 8.00012 10.1406C9.18236 10.1406 10.1408 9.1822 10.1408 7.99996C10.1408 6.81771 9.18236 5.85932 8.00012 5.85932ZM6.85948 7.99996C6.85948 7.37 7.37016 6.85932 8.00012 6.85932C8.63008 6.85932 9.14076 7.37 9.14076 7.99996C9.14076 8.62991 8.63008 9.14059 8.00012 9.14059C7.37016 9.14059 6.85948 8.62991 6.85948 7.99996Z" fill="#5E6065"/>
<path fill-rule="evenodd" clip-rule="evenodd" d="M8.00012 3.69208C6.47421 3.69208 5.03323 4.28909 3.88273 5.07894C2.73664 5.86577 1.82787 6.87899 1.38742 7.78046C1.31975 7.91897 1.31975 8.08095 1.38742 8.21945C1.82787 9.12093 2.73664 10.1341 3.88273 10.921C5.03323 11.7108 6.47421 12.3078 8.00012 12.3078C9.52603 12.3078 10.967 11.7108 12.1175 10.921C13.2636 10.1341 14.1724 9.12093 14.6128 8.21945C14.6805 8.08095 14.6805 7.91897 14.6128 7.78047C14.1724 6.87899 13.2636 5.86577 12.1175 5.07894C10.967 4.28909 9.52603 3.69208 8.00012 3.69208ZM4.44872 10.0966C3.51336 9.45441 2.79199 8.66914 2.40347 7.99996C2.79199 7.33077 3.51336 6.54551 4.44872 5.90336C5.48414 5.19251 6.73085 4.69208 8.00012 4.69208C9.26939 4.69208 10.5161 5.19251 11.5515 5.90336C12.4869 6.54551 13.2082 7.33077 13.5968 7.99995C13.2082 8.66914 12.4869 9.45441 11.5515 10.0966C10.5161 10.8074 9.26939 11.3078 8.00012 11.3078C6.73085 11.3078 5.48414 10.8074 4.44872 10.0966Z" fill="#5E6065"/>
</g>
</g>
</svg>
