<svg width="20" height="20" viewBox="0 0 20 20" fill="none" xmlns="http://www.w3.org/2000/svg">
<g id="&#230;&#155;&#191;&#230;&#141;&#162;">
<g id="Outlined">
<path d="M10.5108 11.8356C10.5108 11.4904 10.231 11.2106 9.88581 11.2106C9.54064 11.2106 9.26081 11.4904 9.26081 11.8356V13.6864C9.26081 14.0316 9.54064 14.3114 9.88581 14.3114C10.231 14.3114 10.5108 14.0316 10.5108 13.6864V11.8356Z" fill="#fff"/>
<path fill-rule="evenodd" clip-rule="evenodd" d="M5.46041 6.06458C5.47109 3.62492 7.45633 1.65655 9.8951 1.66648C12.3338 1.66722 14.3112 3.64509 14.3112 6.08398V7.39721C15.7915 7.91106 16.8544 9.31788 16.8544 10.9738V14.548C16.8544 16.6391 15.1594 18.333 13.0694 18.333H6.70187C4.6118 18.333 2.91687 16.6391 2.91687 14.548V10.9738C2.91687 9.31773 3.97992 7.9108 5.46041 7.39707V6.06731L5.46041 6.06458ZM13.0612 6.08398V7.1888H6.71041V6.06875C6.71877 4.31946 8.14251 2.90882 9.89101 2.91647L9.89374 2.91648C11.6427 2.91648 13.0612 4.33499 13.0612 6.08398ZM6.70187 8.4388C5.30194 8.4388 4.16687 9.57325 4.16687 10.9738V14.548C4.16687 15.9485 5.30194 17.083 6.70187 17.083H13.0694C14.4693 17.083 15.6044 15.9485 15.6044 14.548V10.9738C15.6044 9.57325 14.4693 8.4388 13.0694 8.4388H6.70187Z" fill="#fff"/>
</g>
</g>
</svg>
