<svg width="20" height="20" viewBox="0 0 20 20" fill="none" xmlns="http://www.w3.org/2000/svg">
<g id="&#230;&#155;&#191;&#230;&#141;&#162;">
<g id="Outlined">
<path fill-rule="evenodd" clip-rule="evenodd" d="M10.0001 1.66666C7.19162 1.66666 4.91491 3.94337 4.91491 6.75183C4.91491 9.5603 7.19162 11.837 10.0001 11.837C12.8086 11.837 15.0853 9.5603 15.0853 6.75183C15.0853 3.94337 12.8086 1.66666 10.0001 1.66666ZM6.16491 6.75183C6.16491 4.63372 7.88197 2.91666 10.0001 2.91666C12.1182 2.91666 13.8353 4.63372 13.8353 6.75183C13.8353 8.86995 12.1182 10.587 10.0001 10.587C7.88197 10.587 6.16491 8.86995 6.16491 6.75183Z" fill="#fff"/>
<path d="M2.73557 18.236C4.83596 16.9038 7.32674 16.1323 9.99963 16.1323C12.6725 16.1323 15.1633 16.9038 17.2637 18.236C17.5552 18.4209 17.9414 18.3344 18.1262 18.0429C18.3111 17.7514 18.2247 17.3653 17.9332 17.1804C15.6385 15.725 12.9165 14.8823 9.99963 14.8823C7.08272 14.8823 4.36073 15.725 2.06605 17.1804C1.77456 17.3653 1.68813 17.7514 1.87302 18.0429C2.0579 18.3344 2.44408 18.4209 2.73557 18.236Z" fill="#fff"/>
</g>
</g>
</svg>
