<?xml version="1.0" standalone="no"?>
<!DOCTYPE svg PUBLIC "-//W3C//DTD SVG 20010904//EN"
 "http://www.w3.org/TR/2001/REC-SVG-20010904/DTD/svg10.dtd">
<svg version="1.0" xmlns="http://www.w3.org/2000/svg"
 width="256.000000pt" height="256.000000pt" viewBox="0 0 256.000000 256.000000"
 preserveAspectRatio="xMidYMid meet">

<g transform="translate(0.000000,256.000000) scale(0.100000,-0.100000)"
fill="#000000" stroke="none">
<path d="M1153 2550 c-566 -64 -1007 -465 -1124 -1023 -30 -142 -30 -352 0
-494 108 -515 489 -896 1004 -1004 142 -30 352 -30 494 0 515 108 896 489
1004 1004 30 142 30 352 0 494 -94 450 -401 804 -829 957 -157 56 -391 84
-549 66z m-112 -600 c23 -49 25 -49 59 -43 47 10 338 9 372 0 26 -7 29 -4 49
39 12 25 28 48 35 51 26 10 217 -42 330 -88 l71 -30 61 -102 c165 -278 252
-619 227 -898 l-7 -80 -47 -34 c-94 -69 -384 -205 -437 -205 -12 0 -114 141
-114 159 0 3 34 21 75 40 41 18 75 38 75 43 0 19 -33 19 -83 -1 -258 -104
-563 -106 -834 -6 -68 26 -103 28 -103 6 0 -5 34 -24 75 -42 41 -18 75 -34 75
-36 0 -9 -35 -71 -68 -120 l-34 -52 -86 31 c-173 61 -397 190 -408 235 -13 51
4 365 25 461 41 185 134 411 229 552 35 52 42 57 127 89 94 35 255 80 291 81
14 0 27 -14 45 -50z"/>
<path d="M910 1383 c-68 -26 -110 -94 -110 -180 1 -160 162 -240 274 -135 86
81 71 239 -28 297 -41 24 -99 32 -136 18z"/>
<path d="M1534 1376 c-17 -8 -43 -29 -57 -47 -73 -97 -47 -238 53 -289 87 -44
177 -10 221 85 44 95 6 206 -88 254 -29 15 -91 13 -129 -3z"/>
</g>
</svg>
